<svg xmlns="http://www.w3.org/2000/svg" xmlns:xlink="http://www.w3.org/1999/xlink" version="1.1" id="圖層_1" x="0px" y="0px" width="30px" height="30px" viewBox="0 0 30 30" enable-background="new 0 0 30 30" xml:space="preserve">
<path fill="#C9CACA" d="M15,30L15,30C6.716,30,0,23.283,0,15C0,6.716,6.716,0,15,0c8.285,0,15,6.716,15,15  C30,23.283,23.285,30,15,30"/>
<path fill="#FFFFFF" d="M10.406,11.993h1.968v-1.785c0-0.787,0.022-2,0.635-2.752c0.646-0.797,1.532-1.338,3.056-1.338  c2.483,0,3.529,0.33,3.529,0.33l-0.49,2.721c0,0-0.82-0.222-1.586-0.222c-0.768,0-1.453,0.257-1.453,0.971v2.076h3.142l-0.22,2.658  h-2.922v9.235h-3.688V14.65h-1.968v-2.657H10.406z"/>
</svg>