<svg xmlns="http://www.w3.org/2000/svg" xmlns:xlink="http://www.w3.org/1999/xlink" version="1.1" id="圖層_1" x="0px" y="0px" width="30px" height="30px" viewBox="0 0 30 30" enable-background="new 0 0 30 30" xml:space="preserve">
<circle fill="#C9CACA" cx="15" cy="15" r="15"/>
<path fill="#FFFFFF" d="M26.75,14.219c0-5.438-5.079-9.844-11.344-9.844c-6.266,0-11.344,4.407-11.344,9.844  c0,5.167,4.59,9.396,10.424,9.804l-0.049,2.729l5.667-3.583C24.021,21.62,26.75,18.199,26.75,14.219z"/>
<g>
	<path fill="#C9CACA" d="M12.857,11.233h-0.918c-0.141,0-0.255,0.114-0.255,0.254v5.702c0,0.141,0.114,0.255,0.255,0.255h0.918   c0.141,0,0.255-0.114,0.255-0.255v-5.702C13.112,11.347,12.998,11.233,12.857,11.233"/>
	<path fill="#C9CACA" d="M19.175,11.233h-0.917c-0.141,0-0.256,0.114-0.256,0.254v3.387l-2.612-3.528   c-0.006-0.009-0.014-0.018-0.021-0.026c0,0-0.001-0.001-0.001-0.002c-0.005-0.005-0.011-0.01-0.016-0.016   c-0.001-0.001-0.003-0.003-0.004-0.004c-0.005-0.004-0.009-0.008-0.015-0.012c-0.002-0.002-0.004-0.003-0.006-0.005   c-0.005-0.003-0.009-0.006-0.014-0.009c-0.002-0.001-0.005-0.003-0.008-0.005c-0.004-0.002-0.009-0.005-0.014-0.007   c-0.003-0.001-0.005-0.003-0.008-0.004c-0.005-0.002-0.01-0.004-0.015-0.006c-0.003-0.001-0.006-0.002-0.008-0.003   c-0.006-0.001-0.011-0.003-0.016-0.005c-0.003,0-0.006-0.001-0.009-0.002c-0.005-0.001-0.01-0.002-0.015-0.003   c-0.004-0.001-0.007-0.001-0.011-0.001c-0.005-0.001-0.009-0.001-0.014-0.002c-0.004,0-0.009,0-0.013,0c-0.003,0-0.006,0-0.009,0   H14.26c-0.141,0-0.255,0.114-0.255,0.254v5.702c0,0.141,0.114,0.255,0.255,0.255h0.918c0.141,0,0.255-0.114,0.255-0.255v-3.386   l2.616,3.533c0.018,0.025,0.04,0.046,0.064,0.063c0.001,0.001,0.002,0.002,0.003,0.002c0.005,0.004,0.01,0.007,0.016,0.01   c0.002,0.001,0.005,0.003,0.007,0.004c0.004,0.002,0.009,0.005,0.013,0.006c0.004,0.002,0.008,0.004,0.012,0.005   c0.003,0.001,0.005,0.003,0.009,0.003c0.005,0.002,0.011,0.005,0.017,0.006c0.002,0,0.003,0,0.004,0.002   c0.021,0.005,0.043,0.008,0.065,0.008h0.917c0.141,0,0.256-0.114,0.256-0.255v-5.702C19.431,11.347,19.315,11.233,19.175,11.233"/>
	<path fill="#C9CACA" d="M10.645,16.017H8.151v-4.529c0-0.141-0.115-0.254-0.255-0.254H6.978c-0.141,0-0.255,0.114-0.255,0.254   v5.702l0,0c0,0.068,0.027,0.131,0.071,0.177c0.001,0.001,0.002,0.002,0.004,0.004c0,0.001,0.002,0.002,0.003,0.003   c0.047,0.044,0.108,0.071,0.176,0.071h0.001h3.667c0.141,0,0.254-0.114,0.254-0.255v-0.918   C10.899,16.131,10.785,16.017,10.645,16.017"/>
	<path fill="#C9CACA" d="M24.244,12.661c0.141,0,0.255-0.114,0.255-0.255v-0.918c0-0.141-0.114-0.255-0.255-0.255h-3.666h-0.001   c-0.068,0-0.131,0.027-0.177,0.072c-0.001,0.001-0.002,0.001-0.003,0.002c-0.002,0.002-0.003,0.003-0.004,0.005   c-0.044,0.045-0.071,0.107-0.071,0.175v0v5.701l0,0c0,0.068,0.028,0.131,0.071,0.177c0.002,0.001,0.002,0.002,0.004,0.004   c0.001,0.001,0.002,0.002,0.004,0.003c0.046,0.044,0.107,0.071,0.176,0.071h0.001h3.666c0.141,0,0.255-0.114,0.255-0.255v-0.918   c0-0.141-0.114-0.255-0.255-0.255H21.75v-0.964h2.494c0.141,0,0.255-0.114,0.255-0.255V13.88c0-0.141-0.114-0.255-0.255-0.255   H21.75v-0.964H24.244z"/>
</g>
</svg>